Coordinates
nRows=98
nColumns=2
inDegrees=yes
endheader
time	ankle_angle_r	
4.6875	  9.323135	
4.75	  9.351525	
4.8125	  9.333969	
4.875	  9.317504	
4.9375	  9.319087	
5	  9.315665	
5.0625	  9.318818	
5.125	  9.334533	
5.1875	  9.350727	
5.25	  9.349512	
5.3125	  9.336188	
5.375	  9.336758	
5.4375	  9.335133	
5.5	  9.330287	
5.5625	  9.332818	
5.625	  9.322100	
5.6875	  9.335109	
5.75	  9.383517	
5.8125	  9.397517	
5.875	  9.383872	
5.9375	  9.376391	
6	  9.363063	
6.0625	  9.364198	
6.125	  9.371161	
6.1875	  9.363232	
6.25	  9.370040	
6.3125	  9.380461	
6.375	  9.383398	
6.4375	  9.388046	
6.5	  9.367148	
6.5625	  9.339391	
6.625	  9.337409	
6.6875	  9.349111	
6.75	  9.371308	
6.8125	  9.381349	
6.875	  9.374295	
6.9375	  9.373388	
7	  9.360338	
7.0625	  9.349899	
7.125	  9.352106	
7.1875	  9.341763	
7.25	  9.357234	
7.3125	  9.394793	
7.375	  9.403535	
7.4375	  9.387406	
7.5	  9.351012	
7.5625	  9.322763	
7.625	  9.323585	
7.6875	  9.325207	
7.75	  9.340533	
7.8125	  9.361519	
7.875	  9.366342	
7.9375	  9.386592	
8	  9.375344	
8.0625	  9.317112	
8.125	  9.303233	
8.1875	  9.312033	
8.25	  9.322575	
8.3125	  9.361912	
8.375	  9.373474	
8.4375	  9.369214	
8.5	  9.377080	
8.5625	  9.366704	
8.625	  9.344457	
8.6875	  9.314424	
8.75	  9.327270	
8.8125	  9.383913	
8.875	  9.389495	
8.9375	  9.376247	
9	  9.375638	
9.0625	  9.348853	
9.125	  9.335990	
9.1875	  9.340845	
9.25	  9.349357	
9.3125	  9.369234	
9.375	  9.361613	
9.4375	  9.350984	
9.5	  9.363352	
9.5625	  9.355194	
9.625	  9.330902	
9.6875	  9.320538	
9.75	  9.342224	
9.8125	  9.374390	
9.875	  9.365139	
9.9375	  9.349686	
10	  9.360231	
10.0625	  9.348107	
10.125	  9.329412	
10.1875	  9.329563	
10.25	  9.316394	
10.3125	  9.318642	
10.375	  9.349209	
10.4375	  9.372568	
10.5	  9.393108	
10.5625	  9.389739	
10.625	  9.363849	
10.6875	  9.354241	
10.75	  9.342694	
